HIERARCHY
ROOT RootJoint
{
    OFFSET   0.000000   0.000000   0.000000
    CHANNELS 6 Xposition Yposition Zposition Xrotation Yrotation Zrotation
    JOINT pelvis_lowerback
    {
        OFFSET   0.000000   0.093605   0.000000
        CHANNELS 3 Xrotation Yrotation Zrotation
        JOINT lowerback_torso
        {
            OFFSET   0.000000   0.100000   0.000000
            CHANNELS 3 Xrotation Yrotation Zrotation
            JOINT torso_head
            {
                OFFSET   0.000000   0.282350   0.000000
                CHANNELS 3 Xrotation Yrotation Zrotation
                End Site
                {
                    OFFSET   0.000000   0.192650   0.000000
                }
            }
            JOINT rTorso_Clavicle
            {
                OFFSET  -0.001000   0.157500   0.000000
                CHANNELS 3 Xrotation Yrotation Zrotation
                JOINT rShoulder
                {
                    OFFSET  -0.117647   0.000000   0.000000
                    CHANNELS 3 Xrotation Yrotation Zrotation
                    JOINT rElbow
                    {
                        OFFSET  -0.245000   0.000000   0.000000
                        CHANNELS 3 Xrotation Yrotation Zrotation
                        JOINT rWrist
                        {
                            OFFSET  -0.240000   0.000000   0.000000
                            CHANNELS 3 Xrotation Yrotation Zrotation
                            End Site
                            {
                                OFFSET  -0.116353  -0.002500   0.000000
                            }
                        }
                    }
                }
            }
            JOINT lTorso_Clavicle
            {
                OFFSET   0.001000   0.157500   0.000000
                CHANNELS 3 Xrotation Yrotation Zrotation
                JOINT lShoulder
                {
                    OFFSET   0.117647   0.000000   0.000000
                    CHANNELS 3 Xrotation Yrotation Zrotation
                    JOINT lElbow
                    {
                        OFFSET   0.245000   0.000000   0.000000
                        CHANNELS 3 Xrotation Yrotation Zrotation
                        JOINT lWrist
                        {
                            OFFSET   0.240000   0.000000   0.000000
                            CHANNELS 3 Xrotation Yrotation Zrotation
                            End Site
                            {
                                OFFSET   0.116353  -0.002500   0.000000
                            }
                        }
                    }
                }
            }
        }
    }
    JOINT rHip
    {
        OFFSET  -0.100000  -0.051395   0.000000
        CHANNELS 3 Xrotation Yrotation Zrotation
        JOINT rKnee
        {
            OFFSET   0.000000  -0.410000   0.000000
            CHANNELS 3 Xrotation Yrotation Zrotation
            JOINT rAnkle
            {
                OFFSET   0.000000  -0.390000   0.000000
                CHANNELS 3 Xrotation Yrotation Zrotation
                JOINT rToeJoint
                {
                    OFFSET   0.000000  -0.050000   0.130000
                    CHANNELS 3 Xrotation Yrotation Zrotation
                    End Site
                    {
                        OFFSET  -0.010000   0.002000   0.060000
                    }
                }
            }
        }
    }
    JOINT lHip
    {
        OFFSET   0.100000  -0.051395   0.000000
        CHANNELS 3 Xrotation Yrotation Zrotation
        JOINT lKnee
        {
            OFFSET   0.000000  -0.410000   0.000000
            CHANNELS 3 Xrotation Yrotation Zrotation
            JOINT lAnkle
            {
                OFFSET   0.000000  -0.390000   0.000000
                CHANNELS 3 Xrotation Yrotation Zrotation
                JOINT lToeJoint
                {
                    OFFSET   0.000000  -0.050000   0.130000
                    CHANNELS 3 Xrotation Yrotation Zrotation
                    End Site
                    {
                        OFFSET   0.010000   0.002000   0.060000
                    }
                }
            }
        }
    }
}
MOTION
Frames: 7
Frame Time:   0.008333
 -2.376719   0.925631   3.975860   0.000000   0.000000   0.000000   0.000000   0.000000   0.000000   0.000000   0.000000   0.000000   0.000000   0.000000   0.000000   0.000000   0.000000   0.000000   0.000000   0.000000   0.000000   0.000000   0.000000   0.000000   0.000000   0.000000   0.000000   0.000000   0.000000   0.000000   0.000000   0.000000   0.000000   0.000000   0.000000   0.000000   0.000000   0.000000   0.000000   0.000000   0.000000   0.000000   0.000000   0.000000   0.000000   0.000000   0.000000   0.000000   0.000000   0.000000   0.000000   0.000000   0.000000   0.000000   0.000000   0.000000   0.000000   0.000000   0.000000   0.000000   0.000000   0.000000   0.000000
 -2.376581   0.926150   3.975233   0.542286   0.214358  -0.029788  -0.603172   0.042128   0.022016   0.202974  -0.198625   0.048986  -0.125752   0.047653   0.039325   0.160840  -0.392632   0.205536   0.023056   0.005508   2.184944   0.004790   0.225587  -0.000638   0.074134   0.234938  -2.760142   0.109754   0.355906  -0.261030   0.542617   0.018844  -2.166254   0.013297  -0.637391   0.004442   0.152636  -0.253111   2.705628  -0.977455  -0.219811  -0.328541   1.170642   0.003622  -0.000102  -1.145706  -0.565834   0.079989  -0.138508  -0.000330   0.000687  -1.387807  -0.122578   0.349951   2.160115  -0.006085   0.001903  -1.319713   0.230023  -0.051188   0.148184  -0.000354   0.000416
 -2.376405   0.927000   3.974872   1.015833   0.408450  -0.074513  -1.147597   0.106919   0.060269   0.435878  -0.388465   0.107063  -0.222736   0.095520   0.087574   0.320252  -0.861450   1.125606   0.049669  -0.065076   4.939950   0.010111   0.418441  -0.001045   0.167681   0.464076  -4.781144   0.223143   0.777027  -1.267877   1.055907   0.070295  -4.786869   0.029235  -1.229532   0.007495   0.346485  -0.626137   4.614040  -1.856146  -0.422174  -0.942731   2.379017   0.009734  -0.000484  -2.215587  -1.106798   0.140521  -0.321009  -0.001201   0.001415  -2.684894  -0.241395   0.981563   4.390259  -0.016338   0.004093  -2.542425   0.454629  -0.090737   0.268631  -0.000870   0.000666
 -2.376226   0.927750   3.974752   1.459795   0.578163  -0.124593  -1.667314   0.174334   0.102392   0.658170  -0.561068   0.162469  -0.301979   0.140834   0.136817   0.482431  -1.352387   2.489779   0.083474  -0.182424   8.068914   0.014573   0.581908  -0.001216   0.257879   0.610420  -5.971977   0.341174   1.225129  -2.735021   1.539974   0.136891  -7.626109   0.043515  -1.766421   0.009165   0.536503  -0.941035   5.657537  -2.657030  -0.599518  -1.792719   3.530671   0.016666  -0.001166  -3.212251  -1.617134   0.185220  -0.492065  -0.002218   0.001897  -3.879025  -0.369177   1.836764   6.504967  -0.027926   0.006445  -3.681080   0.669418  -0.120694   0.381178  -0.001472   0.000834
 -2.376034   0.928072   3.974813   1.883951   0.727136  -0.179125  -2.167605   0.239562   0.150069   0.858016  -0.719113   0.225514  -0.370967   0.183226   0.179584   0.651159  -1.845360   4.155223   0.125650  -0.322172  11.304564   0.017726   0.722015  -0.001224   0.338512   0.683113  -6.472898   0.468217   1.681563  -4.470937   1.998519   0.204626 -10.547676   0.054626  -2.255119   0.009835   0.712433  -1.183430   6.058741  -3.395661  -0.750788  -2.831367   4.614112   0.023456  -0.002057  -4.141997  -2.097539   0.216533  -0.652879  -0.003245   0.002188  -4.983482  -0.511098   2.868415   8.486835  -0.039161   0.008987  -4.743842   0.873760  -0.142492   0.479354  -0.002012   0.000924
 -2.375823   0.927722   3.975009   2.288545   0.858298  -0.236353  -2.648948   0.301492   0.205584   1.034889  -0.864334   0.298053  -0.432584   0.222737   0.217198   0.827840  -2.328721   5.983226   0.176533  -0.472747  14.523949   0.019615   0.843607  -0.001135   0.409264   0.701206  -6.501459   0.606002   2.134601  -6.341620   2.433485   0.265753 -13.458994   0.062267  -2.702144   0.009829   0.872892  -1.366809   6.026951  -4.079446  -0.875781  -4.018251   5.630533   0.029553  -0.003055  -5.009747  -2.549015   0.236573  -0.803301  -0.004182   0.002331  -6.006338  -0.669495   4.035205  10.340675  -0.049109   0.011625  -5.736087   1.067384  -0.157429   0.564860  -0.002443   0.000959
 -2.375594   0.926528   3.975296   2.672199   0.974082  -0.294387  -3.110841   0.359839   0.269129   1.191194  -0.997984   0.379018  -0.488439   0.259537   0.251414   1.012443  -2.795704   7.873716   0.235733  -0.627584  17.661515   0.020450   0.950168  -0.000995   0.471658   0.680040  -6.231304   0.754502   2.576874  -8.255085   2.845858   0.316806 -16.299187   0.066709  -3.112676   0.009393   1.019332  -1.505766   5.721110  -4.713368  -0.975171  -5.317924   6.583201   0.034658  -0.004073  -5.819842  -2.972694   0.247190  -0.942939  -0.004968   0.002360  -6.953465  -0.844929   5.301839  12.074073  -0.057301   0.014217  -6.662491   1.250232  -0.166639   0.640219  -0.002759   0.000959
